<svg width="448" height="512" xmlns="http://www.w3.org/2000/svg" class="svg-inline--fa fa-angle-double-right fa-w-14">

 <g>
  <title>background</title>
  <rect fill="none" id="canvas_background" height="602" width="802" y="-1" x="-1"/>
 </g>
 <g>
  <title>Layer 1</title>
  <path id="svg_1" d="m224.3,273l-136,136c-9.4,9.4 -24.6,9.4 -33.9,0l-22.6,-22.6c-9.4,-9.4 -9.4,-24.6 0,-33.9l96.4,-96.4l-96.4,-96.4c-9.4,-9.4 -9.4,-24.6 0,-33.9l22.5,-22.8c9.4,-9.4 24.6,-9.4 33.9,0l136,136c9.5,9.4 9.5,24.6 0.1,34zm192,-34l-136,-136c-9.4,-9.4 -24.6,-9.4 -33.9,0l-22.6,22.6c-9.4,9.4 -9.4,24.6 0,33.9l96.4,96.4l-96.4,96.4c-9.4,9.4 -9.4,24.6 0,33.9l22.6,22.6c9.4,9.4 24.6,9.4 33.9,0l136,-136c9.4,-9.2 9.4,-24.4 0,-33.8z" fill="#ffffff"/>
 </g>
</svg>